<svg width="748" height="783" viewBox="0 0 748 783" fill="none" xmlns="http://www.w3.org/2000/svg">
<g clip-path="url(#clip0_117_2)">
<path d="M68.7563 227.703V323.915C68.7649 328.145 70.4514 332.199 73.4457 335.187C76.4401 338.176 80.4976 339.854 84.7279 339.854H285.287C287.384 339.854 289.46 339.441 291.398 338.638C293.335 337.835 295.095 336.659 296.578 335.175C298.06 333.692 299.236 331.931 300.037 329.994C300.839 328.056 301.251 325.979 301.25 323.882V227.703H68.7563Z" fill="#E6EBED"/>
<path d="M68.7563 219.981V227.703H301.242V219.981C301.243 217.884 300.831 215.807 300.029 213.87C299.228 211.932 298.052 210.171 296.569 208.688C295.087 207.205 293.327 206.028 291.39 205.225C289.452 204.423 287.376 204.01 285.279 204.01H84.7198C80.4853 204.012 76.4249 205.695 73.4314 208.69C70.4379 211.685 68.7563 215.747 68.7563 219.981Z" fill="#41505A"/>
<path d="M248.342 211.902C247.423 211.9 246.524 212.171 245.759 212.681C244.994 213.19 244.398 213.915 244.045 214.763C243.692 215.612 243.599 216.546 243.777 217.448C243.955 218.349 244.397 219.177 245.046 219.828C245.696 220.478 246.523 220.921 247.424 221.101C248.326 221.281 249.26 221.19 250.109 220.838C250.958 220.487 251.684 219.892 252.195 219.128C252.705 218.364 252.978 217.465 252.978 216.547C252.978 215.316 252.49 214.136 251.621 213.265C250.751 212.394 249.572 211.904 248.342 211.902Z" fill="#6A994E"/>
<path d="M266.506 211.902C265.588 211.904 264.69 212.177 263.928 212.689C263.165 213.2 262.571 213.926 262.221 214.775C261.87 215.624 261.78 216.557 261.96 217.458C262.14 218.358 262.583 219.185 263.233 219.834C263.882 220.482 264.71 220.924 265.611 221.102C266.512 221.281 267.445 221.188 268.293 220.837C269.141 220.485 269.866 219.89 270.376 219.126C270.886 218.362 271.158 217.465 271.158 216.547C271.16 215.936 271.04 215.331 270.806 214.766C270.573 214.201 270.23 213.689 269.798 213.257C269.365 212.825 268.852 212.484 268.287 212.251C267.722 212.018 267.117 211.9 266.506 211.902Z" fill="#FFD712"/>
<path d="M284.702 211.902C283.784 211.904 282.887 212.177 282.124 212.689C281.361 213.2 280.767 213.926 280.417 214.775C280.067 215.624 279.976 216.557 280.156 217.458C280.336 218.358 280.779 219.185 281.429 219.834C282.079 220.482 282.906 220.924 283.807 221.102C284.708 221.281 285.641 221.188 286.489 220.837C287.338 220.485 288.063 219.89 288.573 219.126C289.083 218.362 289.355 217.465 289.355 216.547C289.355 215.936 289.234 215.331 289 214.767C288.766 214.203 288.424 213.691 287.992 213.259C287.559 212.828 287.046 212.486 286.482 212.253C285.918 212.02 285.313 211.901 284.702 211.902Z" fill="#E75C37"/>
<path d="M207.386 8.64733C207.384 9.46865 207.626 10.272 208.082 10.9556C208.537 11.6391 209.185 12.1722 209.943 12.4873C210.702 12.8023 211.537 12.8852 212.342 12.7253C213.148 12.5655 213.888 12.1701 214.469 11.5894C215.05 11.0086 215.445 10.2685 215.605 9.46292C215.765 8.6573 215.682 7.82236 215.367 7.06386C215.052 6.30536 214.519 5.65742 213.835 5.20212C213.151 4.74682 212.348 4.50463 211.527 4.50623C210.429 4.50838 209.377 4.94536 208.601 5.7215C207.825 6.49764 207.388 7.5497 207.386 8.64733Z" fill="#CFD6D9"/>
<path d="M207.386 124.98C207.384 125.801 207.626 126.604 208.082 127.288C208.537 127.971 209.185 128.504 209.943 128.82C210.702 129.135 211.537 129.217 212.342 129.058C213.148 128.898 213.888 128.502 214.469 127.922C215.05 127.341 215.445 126.601 215.605 125.795C215.765 124.99 215.682 124.155 215.367 123.396C215.052 122.638 214.519 121.99 213.835 121.534C213.151 121.079 212.348 120.837 211.527 120.839C210.983 120.839 210.444 120.946 209.942 121.154C209.44 121.362 208.983 121.667 208.599 122.051C208.214 122.436 207.909 122.892 207.701 123.395C207.493 123.897 207.386 124.436 207.386 124.98Z" fill="#CFD6D9"/>
<path d="M57.9977 2.62244H193.964V15.6791H57.9977V2.62244Z" fill="#CFD6D9"/>
<path d="M57.9977 23.8151H193.964V25.9668H57.9977V23.8151Z" fill="#CFD6D9"/>
<path d="M57.9977 33.1935H193.964V35.3452H57.9977V33.1935Z" fill="#CFD6D9"/>
<path d="M57.9977 42.5718H193.964V44.7235H57.9977V42.5718Z" fill="#CFD6D9"/>
<path d="M57.9977 51.9502H193.964V54.1019H57.9977V51.9502Z" fill="#CFD6D9"/>
<path d="M104.175 61.3367H193.964V63.4884H104.175V61.3367Z" fill="#CFD6D9"/>
<path d="M57.9977 118.857H193.964V131.914H57.9977V118.857Z" fill="#CFD6D9"/>
<path d="M57.9977 140.042H193.964V142.194H57.9977V140.042Z" fill="#CFD6D9"/>
<path d="M57.9977 149.428H193.964V151.58H57.9977V149.428Z" fill="#CFD6D9"/>
<path d="M57.9977 158.807H193.964V160.958H57.9977V158.807Z" fill="#CFD6D9"/>
<path d="M57.9977 168.185H193.964V170.337H57.9977V168.185Z" fill="#CFD6D9"/>
<path d="M104.175 177.563H193.964V179.715H104.175V177.563Z" fill="#CFD6D9"/>
<path d="M378.841 31.851H721.233V242.554H378.841V31.851Z" fill="#E6EBED"/>
<path d="M412.362 218.617H695.823V25.8206C695.823 25.6053 695.738 25.3988 695.586 25.2465C695.433 25.0942 695.227 25.0087 695.012 25.0087C694.796 25.0087 694.59 25.0942 694.437 25.2465C694.285 25.3988 694.2 25.6053 694.2 25.8206V216.969H412.362C412.146 216.969 411.94 217.054 411.787 217.206C411.635 217.359 411.55 217.565 411.55 217.781C411.55 217.996 411.635 218.202 411.787 218.355C411.94 218.507 412.146 218.593 412.362 218.593V218.617Z" fill="#FFCE8F"/>
<path d="M690.844 216.216V180.095L677.595 154.527L661.017 181.898L635.748 124.828L622.076 170.522L585.747 91.1483L564.995 145.06L528.039 68.1133L499.173 112.934L471.211 48.0587L436.721 137.509L411.257 86.8975V216.216H690.844Z" fill="#FFCE8F"/>
<path d="M660.515 201.021L677.196 180.428L688.818 197.192L677.456 173.954L661.051 194.204L635.208 150.559L621.532 184.721L585.513 125.895L564.755 166.189L528.331 109.487L499.621 142.815L471.262 93.6436L436.713 160.634L413.283 125.838L437.184 168.356L471.465 101.893L498.931 149.518L527.835 115.976L565.161 174.068L585.83 133.938L622.311 193.527L635.931 159.515L660.515 201.021Z" fill="#E75C37"/>
<path d="M112.895 422.529C100.195 419.556 88.8717 412.377 80.7648 402.158C72.6578 391.938 68.2429 379.279 68.2366 366.235C68.2366 364.789 68.2854 363.36 68.399 361.939C69.2863 350.177 73.7547 338.969 81.2029 329.823C88.6512 320.677 98.722 314.031 110.061 310.78C121.399 307.529 133.461 307.828 144.625 311.638C155.788 315.448 165.516 322.585 172.502 332.09C179.487 341.594 183.394 353.01 183.696 364.802C183.999 376.593 180.683 388.195 174.194 398.045C167.705 407.896 158.356 415.522 147.403 419.9C136.449 424.277 124.418 425.195 112.928 422.529H112.895ZM1.50006 284.282V527.421C1.49899 530.497 2.10388 533.544 3.28012 536.386C4.45639 539.229 6.18097 541.812 8.3555 543.988C10.53 546.164 13.1118 547.89 15.9536 549.068C18.7953 550.246 21.8413 550.853 24.9176 550.855H392.874L361.418 519.39H237.786V395.75L126.309 284.282H1.50006ZM33.1672 507.357V502.42H128.802V507.357H33.1672ZM33.1672 495.348V490.403H128.802V495.348H33.1672ZM33.1672 483.33V478.394H128.802V483.33H33.1672ZM33.1672 471.321V466.376H128.802V471.321H33.1672ZM33.1672 459.304V454.343H128.802V459.28L33.1672 459.304ZM58.4442 519.39V514.429H128.802V519.374L58.4442 519.39ZM152.463 519.39V454.343H217.487V519.35L152.463 519.39Z" fill="#FEEDDA"/>
<path d="M1.50022 278.874V284.282H126.31L97.4681 255.408H24.9177C21.8387 255.409 18.79 256.017 15.9462 257.197C13.1024 258.378 10.5191 260.107 8.34416 262.286C6.16922 264.466 4.44527 267.053 3.27093 269.899C2.09658 272.745 1.49489 275.795 1.50022 278.874Z" fill="#1E2F3A"/>
<path d="M33.2079 502.42H128.802V507.357H33.2079V502.42Z" fill="white"/>
<path d="M33.2079 490.403H128.802V495.348H33.2079V490.403Z" fill="white"/>
<path d="M33.2079 478.394H128.802V483.33H33.2079V478.394Z" fill="white"/>
<path d="M33.2079 466.376H128.802V471.321H33.2079V466.376Z" fill="white"/>
<path d="M33.2079 454.367H128.802V459.304H33.2079V454.367Z" fill="white"/>
<path d="M58.4848 514.429H128.802V519.374H58.4848V514.429Z" fill="white"/>
<path d="M68.3666 361.939C68.2529 363.36 68.2043 364.789 68.2043 366.235C68.1927 374.671 70.0329 383.008 73.5952 390.656C77.1574 398.303 82.3547 405.076 88.8204 410.496L104.881 391.382C101.207 388.309 98.2529 384.465 96.2281 380.124C94.2034 375.783 93.1576 371.049 93.1645 366.259C93.1645 365.447 93.1645 364.635 93.2619 363.823L68.3666 361.939Z" fill="#FF684A"/>
<path d="M68.3666 361.94L93.2538 363.791C93.8408 355.775 97.3653 348.257 103.152 342.679L85.7836 324.751C75.6051 334.585 69.4049 347.824 68.3666 361.94Z" fill="#A82DC6"/>
<path d="M85.7918 324.727L103.16 342.655C109.265 336.689 117.465 333.351 126.001 333.358V308.43C110.984 308.405 96.5533 314.253 85.7918 324.727Z" fill="#FFD712"/>
<path d="M104.881 391.357L88.8203 410.496C95.7765 416.366 104.028 420.499 112.895 422.554L118.579 398.194C113.534 397.038 108.838 394.694 104.881 391.357Z" fill="#5F5CEA"/>
<path d="M93.2537 363.791C93.1807 364.603 93.1563 365.415 93.1563 366.227C93.1494 371.017 94.1953 375.75 96.22 380.091C98.2447 384.433 101.199 388.276 104.873 391.349L125.985 366.227L93.2537 363.791Z" fill="#FEEDDA"/>
<path d="M93.2537 363.791L125.993 366.227L103.152 342.679C97.3651 348.257 93.8406 355.775 93.2537 363.791Z" fill="#FEEDDA"/>
<path d="M97.4678 255.408L126.309 284.249H459.805V278.874C459.81 275.794 459.207 272.743 458.031 269.896C456.855 267.05 455.13 264.462 452.953 262.283C450.777 260.104 448.192 258.375 445.347 257.195C442.502 256.015 439.452 255.408 436.372 255.408H97.4678ZM384.681 270.356C384.679 269.266 385.001 268.2 385.606 267.292C386.21 266.385 387.07 265.677 388.077 265.258C389.084 264.839 390.192 264.728 391.262 264.939C392.332 265.151 393.315 265.674 394.087 266.444C394.859 267.214 395.386 268.196 395.6 269.265C395.815 270.334 395.707 271.443 395.291 272.451C394.875 273.459 394.17 274.321 393.264 274.928C392.358 275.535 391.293 275.86 390.203 275.862C388.741 275.862 387.339 275.282 386.304 274.25C385.269 273.218 384.685 271.818 384.681 270.356ZM406.28 270.356C406.277 269.264 406.598 268.195 407.202 267.285C407.807 266.374 408.668 265.664 409.677 265.244C410.686 264.823 411.796 264.712 412.868 264.923C413.941 265.134 414.926 265.659 415.7 266.43C416.473 267.202 417.001 268.186 417.215 269.257C417.43 270.329 417.321 271.44 416.904 272.449C416.486 273.459 415.779 274.323 414.87 274.93C413.962 275.537 412.894 275.862 411.801 275.862C410.34 275.862 408.938 275.282 407.903 274.25C406.868 273.218 406.284 271.818 406.28 270.356ZM427.886 270.356C427.883 269.263 428.205 268.194 428.81 267.284C429.415 266.373 430.276 265.663 431.286 265.243C432.295 264.823 433.406 264.712 434.478 264.924C435.551 265.135 436.536 265.661 437.309 266.433C438.083 267.205 438.61 268.19 438.823 269.262C439.037 270.334 438.927 271.445 438.508 272.455C438.09 273.465 437.381 274.328 436.471 274.934C435.562 275.54 434.493 275.863 433.4 275.862C431.939 275.862 430.538 275.282 429.504 274.25C428.47 273.218 427.889 271.817 427.886 270.356Z" fill="#41505A"/>
<path d="M103.16 342.655L126.001 366.202V333.358C117.465 333.351 109.265 336.689 103.16 342.655Z" fill="#FEEDDA"/>
<path d="M126.001 366.235L104.89 391.357C108.841 394.695 113.531 397.041 118.571 398.202L126.001 366.235Z" fill="#FEEDDA"/>
<path d="M118.563 398.203L112.879 422.562C125.616 425.513 138.977 424.064 150.784 418.451C162.592 412.838 172.151 403.391 177.903 391.65L155.492 380.696C152.785 386.215 148.586 390.864 143.37 394.116C138.154 397.369 132.131 399.094 125.985 399.096C123.484 399.089 120.994 398.789 118.563 398.203Z" fill="white"/>
<path d="M126.001 366.235L118.563 398.202C121 398.779 123.497 399.068 126.001 399.063C132.148 399.061 138.171 397.336 143.386 394.084C148.602 390.832 152.802 386.182 155.508 380.664L126.001 366.235Z" fill="#FEEDDA"/>
<path d="M126.001 333.358V366.202L155.508 380.631C157.952 375.623 159.083 370.076 158.793 364.511C158.504 358.946 156.804 353.546 153.853 348.819C150.902 344.092 146.798 340.192 141.926 337.488C137.054 334.783 131.574 333.362 126.001 333.358Z" fill="#FEEDDA"/>
<path d="M126.001 308.43V333.358C131.573 333.362 137.053 334.783 141.926 337.488C146.798 340.192 150.902 344.092 153.853 348.819C156.804 353.546 158.504 358.946 158.793 364.511C159.083 370.076 157.952 375.623 155.508 380.631L177.919 391.585C182.218 382.775 184.206 373.016 183.696 363.226C183.185 353.436 180.194 343.937 175.002 335.621C169.81 327.306 162.589 320.447 154.017 315.691C145.445 310.934 135.804 308.435 126.001 308.43Z" fill="#5F5CEA"/>
<path d="M126.309 284.282L237.786 395.75V320.715H434.951V519.374H361.41L392.874 550.838H436.372C442.584 550.838 448.542 548.372 452.936 543.98C457.33 539.589 459.801 533.633 459.805 527.421V284.282H126.309Z" fill="#FFF4E9"/>
<path d="M152.496 454.367H217.503V519.374H152.496V454.367Z" fill="white"/>
<path d="M253.482 411.446L237.786 395.75V519.374H361.41L346.924 504.897H339.235V497.207L332.276 490.248V504.897H322.11V480.082L315.151 473.116V504.897H304.977V462.942L298.011 455.983V504.897H287.853V445.817L280.886 438.858V504.897H270.712V428.684L263.761 421.734V504.897H253.587V411.56L253.482 411.446Z" fill="#FFBE78"/>
<path d="M407.766 468.585V453.531H417.923V504.937H407.766V468.585ZM383.666 431.965V504.897H373.5V407.289H383.666V431.965ZM356.335 441.351V390.464H366.541V504.897H356.335V441.351ZM400.774 440.734V504.929H390.6V427.547H400.799L400.774 440.734ZM304.961 438.745V403.854H315.151V473.116L322.11 480.083V410.731H332.276V490.24L339.235 497.207V398.876H349.409V504.897H346.924L361.41 519.374H434.951V320.715H237.786V395.75L253.481 411.446H253.587V406.907H263.769V421.734L270.72 428.676V375.159H280.886V438.858L287.853 445.817V366.365H298.01V455.967L304.977 462.925L304.961 438.745Z" fill="#FFCE8F"/>
<path d="M253.587 411.56V504.897H263.761V421.734L253.587 411.56Z" fill="#ABB4B9"/>
<path d="M253.587 411.446V411.56L263.761 421.734V411.446H253.587Z" fill="#CFD6D9"/>
<path d="M253.587 406.915H263.761V411.454H253.587V406.915Z" fill="#FFF5A2"/>
<path d="M270.712 428.684V504.896H280.886V438.858L270.712 428.684Z" fill="#ABB4B9"/>
<path d="M270.712 402.092V428.684L280.886 438.858V402.092H280.829H270.712Z" fill="#CFD6D9"/>
<path d="M270.712 375.158V402.092H280.829H280.886V375.158H270.712Z" fill="#FFF5A2"/>
<path d="M287.853 445.817V504.897H298.01V455.983L287.853 445.817Z" fill="#ABB4B9"/>
<path d="M287.853 410.829V445.817L298.01 455.983V410.829H287.853Z" fill="#CFD6D9"/>
<path d="M287.845 366.365H298.01V410.829H287.845V366.365Z" fill="#FFF5A2"/>
<path d="M304.977 462.942V504.897H315.151V473.116L304.977 462.942Z" fill="#ABB4B9"/>
<path d="M304.977 438.712V462.942L315.151 473.116V438.712H304.977Z" fill="#CFD6D9"/>
<path d="M304.977 403.854H315.151V438.712H304.977V403.854Z" fill="#FFF5A2"/>
<path d="M322.11 480.083V504.897H332.276V490.248L322.11 480.083Z" fill="#ABB4B9"/>
<path d="M322.11 449.284V480.082L332.276 490.248V449.284H322.11Z" fill="#CFD6D9"/>
<path d="M322.11 410.731H332.276V449.284H322.11V410.731Z" fill="#FFF5A2"/>
<path d="M339.235 497.207V504.896H346.924L339.235 497.207Z" fill="#ABB4B9"/>
<path d="M339.235 433.118V497.207L346.924 504.897H349.417V433.118H339.235Z" fill="#CFD6D9"/>
<path d="M339.235 398.885H349.409V433.126H339.235V398.885Z" fill="#FFF5A2"/>
<path d="M356.367 441.319H366.542V504.897H356.367V441.319Z" fill="#CFD6D9"/>
<path d="M356.367 390.464H366.542V441.319H356.367V390.464Z" fill="#FFF5A2"/>
<path d="M373.5 431.965H383.666V504.888H373.5V431.965Z" fill="#CFD6D9"/>
<path d="M373.5 407.289H383.666V431.973H373.5V407.289Z" fill="#FFF5A2"/>
<path d="M390.203 264.835C389.112 264.833 388.046 265.155 387.138 265.76C386.231 266.364 385.523 267.224 385.104 268.231C384.685 269.238 384.574 270.346 384.785 271.416C384.997 272.486 385.52 273.469 386.29 274.241C387.06 275.013 388.042 275.54 389.111 275.754C390.18 275.968 391.289 275.861 392.297 275.445C393.305 275.029 394.167 274.324 394.774 273.418C395.381 272.512 395.706 271.447 395.708 270.356C395.708 268.895 395.128 267.493 394.096 266.458C393.064 265.423 391.664 264.839 390.203 264.835Z" fill="#6A994E"/>
<path d="M390.625 440.701H400.799V504.896H390.625V440.701Z" fill="#CFD6D9"/>
<path d="M390.625 427.564H400.799V440.702H390.625V427.564Z" fill="#FFF5A2"/>
<path d="M411.801 264.835C410.712 264.837 409.647 265.161 408.741 265.768C407.836 266.374 407.131 267.235 406.714 268.242C406.298 269.249 406.189 270.357 406.402 271.426C406.615 272.495 407.14 273.476 407.911 274.247C408.681 275.017 409.663 275.542 410.732 275.755C411.801 275.968 412.908 275.86 413.916 275.444C414.923 275.027 415.784 274.322 416.39 273.416C416.997 272.511 417.321 271.446 417.323 270.356C417.323 268.892 416.741 267.488 415.706 266.452C414.67 265.417 413.266 264.835 411.801 264.835Z" fill="#FFD712"/>
<path d="M407.758 468.585H417.924V504.897H407.758V468.585Z" fill="#CFD6D9"/>
<path d="M407.758 453.498H417.924V468.585H407.758V453.498Z" fill="#FFF5A2"/>
<path d="M433.4 264.835C432.31 264.837 431.245 265.161 430.34 265.768C429.435 266.374 428.729 267.235 428.313 268.242C427.897 269.249 427.788 270.357 428.001 271.426C428.214 272.495 428.739 273.476 429.51 274.247C430.28 275.017 431.262 275.542 432.33 275.755C433.399 275.968 434.507 275.86 435.514 275.444C436.521 275.027 437.382 274.322 437.989 273.416C438.595 272.511 438.92 271.446 438.921 270.356C438.922 269.631 438.78 268.913 438.503 268.242C438.226 267.572 437.819 266.963 437.307 266.45C436.794 265.937 436.185 265.53 435.514 265.253C434.844 264.976 434.125 264.834 433.4 264.835Z" fill="#E75C37"/>
<path d="M270.939 67.459C264.499 71.8406 259.002 77.4691 254.774 84.0118C250.546 90.5545 247.674 97.8785 246.325 105.551C244.977 113.223 245.181 121.088 246.925 128.68C248.669 136.272 251.917 143.437 256.478 149.752C261.039 156.067 266.82 161.403 273.479 165.445C280.138 169.487 287.54 172.153 295.247 173.285C302.954 174.416 310.81 173.991 318.35 172.035C325.89 170.078 332.961 166.629 339.146 161.892C326.603 170.425 311.227 173.73 296.287 171.104C281.346 168.479 268.018 160.13 259.136 147.832C250.254 135.535 246.518 120.258 248.722 105.25C250.926 90.2409 258.897 76.6835 270.939 67.459Z" fill="#D93815"/>
<path d="M270.939 67.4589C259.954 75.8368 252.303 87.8453 249.351 101.342C246.399 114.838 248.339 128.944 254.825 141.143C261.31 153.341 271.919 162.839 284.758 167.94C297.597 173.042 311.831 173.415 324.92 168.994C338.009 164.573 349.101 155.645 356.217 143.803C363.333 131.961 366.01 117.976 363.77 104.344C361.53 90.7111 354.519 78.3179 343.988 69.3755C333.457 60.4332 320.092 55.5236 306.276 55.5228C293.506 55.5149 281.089 59.7093 270.939 67.4589ZM260.221 113.79C260.215 106.773 261.816 99.8476 264.901 93.5449C267.986 87.2422 272.474 81.7297 278.02 77.43C286.237 71.0519 296.372 67.645 306.774 67.7647C317.175 67.8844 327.229 71.5236 335.298 78.0892C343.366 84.6548 348.973 93.7596 351.204 103.92C353.435 114.08 352.159 124.696 347.584 134.038C343.009 143.38 335.404 150.897 326.01 155.364C316.616 159.831 305.986 160.984 295.852 158.635C285.718 156.287 276.679 150.576 270.207 142.432C263.735 134.288 260.212 124.193 260.213 113.79H260.221Z" fill="#FF684A"/>
<path d="M264.175 113.32H269.567V114.261H264.175V113.32Z" fill="white"/>
<path d="M278.02 77.4301C268.854 83.5806 262.203 92.8188 259.278 103.462C256.352 114.105 257.347 125.445 262.081 135.416C266.815 145.387 274.974 153.326 285.07 157.786C295.167 162.247 306.529 162.932 317.089 159.718C327.648 156.503 336.701 149.602 342.6 140.273C348.498 130.943 350.849 119.805 349.224 108.887C347.599 97.9695 342.106 87.9989 333.746 80.7914C325.387 73.5838 314.716 69.6189 303.678 69.6189C294.539 69.6135 285.606 72.3331 278.02 77.4301ZM264.216 114.262V113.312H269.599V114.253L264.216 114.262ZM304.336 113.791C304.335 113.531 304.385 113.273 304.484 113.033C304.582 112.793 304.728 112.574 304.911 112.39C305.094 112.206 305.312 112.06 305.552 111.96C305.792 111.861 306.049 111.809 306.309 111.809C306.552 111.811 306.792 111.861 307.015 111.955L329.004 93.28L330.222 94.7172L308.242 113.393C308.254 113.528 308.254 113.664 308.242 113.799C308.236 114.079 308.172 114.356 308.055 114.611L323.482 135.917L321.956 137.029L306.52 115.747H306.277C306.018 115.749 305.763 115.699 305.524 115.601C305.285 115.503 305.068 115.359 304.885 115.178C304.701 114.996 304.556 114.78 304.456 114.542C304.356 114.304 304.304 114.049 304.303 113.791H304.336ZM305.838 155.884V150.484H306.78V155.884H305.838ZM305.838 77.081V71.6895H306.78V77.081H305.838ZM343.01 114.262V113.312H348.402V114.253L343.01 114.262Z" fill="#FFCE8F"/>
<path d="M278.028 77.43C287.936 70.7494 300.055 68.1834 311.821 70.2745C323.587 72.3655 334.079 78.9498 341.079 88.6354C348.079 98.3211 351.039 110.349 349.332 122.177C347.626 134.005 341.387 144.706 331.935 152.018C337.053 148.568 341.424 144.124 344.79 138.95C348.156 133.776 350.447 127.978 351.527 121.901C352.607 115.824 352.454 109.592 351.077 103.575C349.7 97.558 347.127 91.8796 343.512 86.877C339.896 81.8745 335.312 77.65 330.031 74.4548C324.75 71.2596 318.881 69.1588 312.772 68.2775C306.663 67.3962 300.439 67.7523 294.47 69.3246C288.501 70.8969 282.91 73.6533 278.028 77.43Z" fill="#FFBE78"/>
<path d="M306.276 111.809C305.753 111.809 305.251 112.017 304.881 112.387C304.511 112.757 304.303 113.259 304.303 113.782C304.303 114.306 304.511 114.808 304.881 115.178C305.251 115.548 305.753 115.755 306.276 115.755H306.52L321.988 137.046L323.515 135.933L308.087 114.627C308.205 114.372 308.268 114.095 308.274 113.815C308.287 113.68 308.287 113.544 308.274 113.409L330.254 94.7333L329.036 93.2961L307.048 111.972C306.805 111.863 306.542 111.808 306.276 111.809Z" fill="white"/>
<path d="M305.805 150.492H306.747V155.892H305.805V150.492Z" fill="white"/>
<path d="M305.805 71.6893H306.747V77.089H305.805V71.6893Z" fill="white"/>
<path d="M342.978 113.32H348.369V114.261H342.978V113.32Z" fill="white"/>
<path d="M377.187 548.459C334.858 543.847 345.406 478.475 348.402 463.469C335.475 493.358 330.75 526.179 350.196 553.299C362.319 570.212 380.159 575.328 393.686 576.464C400.028 577.053 406.419 576.824 412.703 575.782C410.225 570.632 408.056 565.34 406.207 559.932C405.192 556.896 404.38 554.029 403.771 551.358L377.187 548.459Z" fill="#9316B2"/>
<path d="M370.951 423.325L375.4 423.504C375.98 422.627 376.757 421.899 377.67 421.379C378.582 420.859 379.604 420.56 380.654 420.507L403.43 419.476C407.222 385.324 423.973 365.642 427.789 361.533C420.781 366.458 414.183 371.94 408.058 377.927C394.413 391.971 381.998 407.159 370.951 423.325Z" fill="#A82DC6"/>
<path d="M374.085 427.174L374.556 425.428C374.736 424.739 375.026 424.084 375.417 423.488L370.967 423.309C362.201 435.94 354.646 449.37 348.402 463.421C345.406 478.426 334.858 543.807 377.187 548.411L403.73 551.309C397.137 523.637 409.503 514.535 412.045 512.976C412.037 512.876 412.037 512.775 412.045 512.675L377.447 508.201L411.339 503.208C411.29 501.657 411.29 500.074 411.339 498.433C411.339 497.54 411.355 496.663 411.387 495.803L374.199 429.821C373.975 429.425 373.847 428.983 373.826 428.528C373.805 428.074 373.891 427.621 374.077 427.207L374.085 427.174Z" fill="#A82DC6"/>
<path d="M377.446 508.201L412.029 512.724C411.671 509.777 411.42 506.594 411.338 503.208L377.446 508.201Z" fill="#6E0089"/>
<path d="M406.191 559.9C408.04 565.307 410.209 570.6 412.686 575.75C412.686 575.75 429.949 566.899 436.583 552.901C436.567 552.933 427.481 559.47 406.191 559.9Z" fill="#6E0089"/>
<path d="M420.53 540.218C420.53 540.218 414.245 530.604 412.045 513.024C409.503 514.583 397.137 523.686 403.73 551.358C404.363 554.029 405.175 556.896 406.166 559.932C427.456 559.47 436.542 552.933 436.542 552.933C426.977 548.646 420.53 540.218 420.53 540.218Z" fill="#FCA27E"/>
<path d="M413.986 693.276V693.357C413.986 693.357 418.638 947.182 442.169 1083.44H534.158C534.158 1083.44 536.992 1021.49 540.297 986.701L547.41 922.043L611.735 1080.7H711.073C659.544 907.874 670.831 689.273 670.831 689.273L670.912 688.94L622.551 676.565C614.612 674.548 607.392 670.361 601.698 664.473C596.005 658.585 592.063 651.227 590.315 643.225V643.063L588.342 634.131L582.179 606.175C582.179 606.475 468.965 605.996 468.965 606.305L469.525 667.203L448.186 677.247L413.986 693.276Z" fill="#FF684A"/>
<path d="M403.43 419.476L452.295 417.244L439.969 407.687C447.731 378.869 462.055 347.202 465.424 339.927C452.307 346.023 439.746 353.252 427.887 361.534C424.013 365.642 407.262 385.325 403.43 419.476Z" fill="#9316B2"/>
<path d="M411.363 495.802C411.363 496.663 411.346 497.54 411.314 498.433C411.314 500.057 411.314 501.681 411.314 503.208C411.395 506.594 411.647 509.777 412.004 512.724L412.475 512.781L412.029 513.024C414.229 530.604 420.514 540.218 420.514 540.218C420.514 540.218 426.961 548.646 436.567 552.901C437.731 553.415 438.927 553.855 440.147 554.216C446.067 555.97 452.83 556.067 459.765 555.142C461.835 554.874 463.906 554.508 465.976 554.078C468.826 553.485 471.66 552.755 474.421 551.926C490.831 547.054 505.357 539.008 508.394 536.702C513.412 532.877 509.969 530.953 509.507 530.717C516.335 527.632 521.288 524.652 521.223 522.598C521.029 516.483 482.094 525.318 476.191 526.658C490.571 520.162 516.863 507.324 517.212 501.072C517.691 492.579 469.89 508.567 468.697 508.948L468.55 508.77C479.593 500.276 498.707 484.889 498.91 479.969C499.105 475.503 482.606 482.997 466.878 490.46C460.041 493.707 453.342 496.955 448.202 499.229C446.927 499.797 445.766 500.293 444.703 500.723C429.713 506.788 426.547 494.674 426.254 481.706C426.1 475.121 422.454 470.842 418.906 468.211C418.253 467.741 417.484 467.457 416.682 467.392C415.88 467.326 415.075 467.481 414.355 467.84C413.634 468.198 413.025 468.747 412.594 469.426C412.163 470.106 411.925 470.89 411.907 471.695C411.777 476.437 411.582 484.061 411.314 495.786L411.363 495.802Z" fill="#FFC5AE"/>
<path d="M436.567 552.933C429.933 566.932 412.67 575.782 412.67 575.782C406.387 576.824 399.996 577.053 393.654 576.464L392.379 605.696L391.794 703.734L413.986 693.276L448.137 677.207C454.349 674.284 459.601 669.655 463.281 663.859C466.96 658.063 468.914 651.341 468.916 644.476C468.916 644.167 468.916 643.883 468.916 643.583L468.031 606.231C467.674 600.548 467.365 594.929 467.105 589.375H466.854L459.781 555.101C452.847 556.027 446.083 555.913 440.164 554.176C438.943 553.814 437.747 553.375 436.583 552.86L436.567 552.933Z" fill="#9316B2"/>
<path d="M448.154 677.207L469.492 667.163L468.932 644.476C468.931 651.341 466.976 658.064 463.297 663.859C459.618 669.655 454.365 674.284 448.154 677.207Z" fill="#41505A"/>
<path d="M465.4 339.927C462.03 347.235 447.707 378.902 439.945 407.686L452.335 417.243L473.041 416.31C479.212 366.121 487.38 335.648 488.956 330.029C484.084 331.799 475.574 335.12 465.4 339.927Z" fill="#A82DC6"/>
<path d="M465.952 554.078C463.881 554.508 461.811 554.89 459.74 555.142L466.813 589.415H467.064C466.512 577.284 466.142 565.505 465.952 554.078Z" fill="#A82DC6"/>
<path d="M560.523 546.754C560.399 547.405 560.057 547.993 559.554 548.424C559.051 548.855 558.416 549.102 557.755 549.125L474.437 551.91C471.669 552.722 468.843 553.469 465.993 554.062C466.161 565.484 466.531 577.257 467.105 589.383C467.354 594.937 467.663 600.556 468.031 606.24L582.146 606.11C581.513 601.59 580.91 597.124 580.336 592.712C577.7 572.461 575.67 553.323 574.246 535.297C572.44 531.821 570.89 528.217 569.61 524.514L546.338 514.868L561.474 541.76C561.616 542.018 561.703 542.303 561.73 542.597C561.756 542.89 561.722 543.186 561.628 543.466L560.532 546.714L560.523 546.754Z" fill="white"/>
<path d="M374.069 427.206C373.883 427.621 373.797 428.074 373.818 428.528C373.839 428.982 373.967 429.425 374.19 429.821L411.363 495.754C411.631 484.029 411.826 476.404 411.956 471.662C411.974 470.858 412.211 470.073 412.643 469.394C413.074 468.715 413.683 468.166 414.404 467.808C415.124 467.449 415.929 467.294 416.731 467.359C417.533 467.425 418.302 467.708 418.955 468.179C422.503 470.81 426.149 475.089 426.303 481.674C426.596 494.666 429.762 506.756 444.751 500.691C445.799 500.26 446.976 499.765 448.251 499.197C453.358 496.931 460.057 493.691 466.927 490.427C482.655 482.965 499.154 475.471 498.959 479.936C498.756 484.857 479.642 500.236 468.599 508.737L468.745 508.916C469.939 508.534 517.74 492.546 517.261 501.04C516.912 507.292 490.62 520.089 476.24 526.625C482.143 525.245 521.078 516.41 521.272 522.565C521.337 524.644 516.401 527.624 509.556 530.685C510.018 530.921 513.461 532.845 508.443 536.669C505.406 538.975 490.88 547.038 474.47 551.894L557.787 549.109C558.449 549.086 559.083 548.839 559.586 548.408C560.089 547.977 560.431 547.388 560.556 546.738C560.694 546.037 560.564 545.309 560.191 544.7L490.271 426.89L489.719 425.932C488.907 424.566 487.743 423.444 486.349 422.682C484.955 421.921 483.382 421.548 481.794 421.604L376.635 425.477C376.094 425.492 375.569 425.66 375.12 425.96C374.67 426.26 374.314 426.681 374.093 427.174L374.069 427.206Z" fill="#1E2F3A"/>
<path d="M487.997 358.529C498.553 345.627 508.703 352.407 510.911 354.153L505.341 339.042L501.127 327.674C500.544 326.082 500.412 324.36 500.746 322.698C501.08 321.036 501.866 319.498 503.019 318.255L495.541 324.621C494.282 325.699 493.347 327.104 492.837 328.681C492.662 329.148 492.539 329.632 492.471 330.126L487.997 358.529Z" fill="#FFD712"/>
<path d="M502.239 436.536L530.261 486.318C547.565 498.265 566.051 508.403 585.427 516.573C586.239 501.705 584.826 483.858 576.495 469.697L570.925 469.324L544.129 467.578C544.129 467.578 521.573 442.057 502.239 436.536Z" fill="#FFC5AE"/>
<path d="M505.341 339.042C508.589 331.442 511.025 320.634 512.649 311.978L505.008 316.607C504.286 317.057 503.628 317.604 503.052 318.231C501.899 319.474 501.112 321.011 500.778 322.674C500.445 324.336 500.577 326.058 501.16 327.65L505.341 339.042Z" fill="#DDB305"/>
<path d="M512.235 225.771C506.332 215.402 503.133 227.46 503.133 227.46C505.422 223.245 511.788 225.616 512.235 225.771Z" fill="#4C1100"/>
<path d="M505.788 240.524C505.788 243.772 507.03 246.379 508.573 246.379C510.116 246.379 511.374 243.756 511.374 240.524C511.374 237.293 510.116 234.67 508.573 234.67C507.03 234.67 505.788 237.293 505.788 240.524Z" fill="#4C1100"/>
<path d="M512.665 254.547C518.658 249.375 520.712 236.261 520.785 235.701C520.785 235.701 514.289 248.181 510.173 251.73C506.925 254.515 507.988 257.105 508.549 258.079C509.677 259.874 512.048 261.019 514.671 261.53C520.103 261.717 520.883 257.551 520.883 257.551C517.553 258.794 512.657 257.551 511.764 256.147C511.48 255.692 512.235 254.953 512.665 254.547Z" fill="#FCA27E"/>
<path d="M530.277 486.318L546.338 514.868L569.61 524.498L573.523 526.122L584.03 530.466C584.647 526.357 585.175 521.648 585.443 516.573C566.067 508.403 547.582 498.265 530.277 486.318Z" fill="#FCA27E"/>
<path d="M482.192 617.266C482.192 617.266 485.261 838.409 543.358 959.069L547.418 922.002C523.245 862.443 493.706 696.191 482.192 617.266Z" fill="#D93815"/>
<path d="M533.428 225.421C540.589 217.245 550.479 227.776 550.901 228.272C538.982 208.475 533.614 224.772 533.428 225.421Z" fill="#4C1100"/>
<path d="M537.195 240.524C537.195 244.089 538.584 246.971 540.273 246.971C541.962 246.971 543.358 244.089 543.358 240.524C543.358 236.96 541.97 234.077 540.273 234.077C538.576 234.077 537.195 236.96 537.195 240.524Z" fill="#4C1100"/>
<path d="M546.338 514.868L530.269 486.318L502.248 436.536L494.988 423.674C494.985 423.658 494.985 423.642 494.988 423.626C493.592 421.185 491.55 419.176 489.086 417.821C486.622 416.466 483.832 415.816 481.022 415.944L473.065 416.31L452.36 417.243L403.43 419.476L380.694 420.508C379.642 420.554 378.616 420.849 377.699 421.366C376.782 421.884 376 422.611 375.416 423.488C375.028 424.078 374.737 424.728 374.556 425.412L374.085 427.158C374.306 426.664 374.662 426.244 375.111 425.943C375.561 425.643 376.086 425.476 376.626 425.461L481.761 421.62C483.349 421.565 484.922 421.937 486.317 422.698C487.711 423.46 488.875 424.582 489.686 425.948L490.238 426.906L560.142 544.716C560.515 545.326 560.645 546.053 560.507 546.754L561.603 543.506C561.697 543.227 561.732 542.931 561.705 542.637C561.679 542.344 561.591 542.059 561.449 541.801L546.338 514.868Z" fill="#41505A"/>
<path d="M565.598 262.261C564.25 267.847 552.412 303.233 518.373 299.003C517.099 298.841 515.937 298.654 514.76 298.41C514.679 298.954 514.573 299.848 514.411 301.041C514.078 303.315 513.599 306.628 512.901 310.46C516.051 313.002 519.348 314.358 522.75 314.293C559.638 313.529 565.598 262.261 565.598 262.261Z" fill="#FCA27E"/>
<path d="M565.598 262.261C565.598 262.261 559.638 313.529 522.75 314.293C519.348 314.358 516.051 313.002 512.901 310.46C512.803 310.972 512.706 311.475 512.617 312.003C510.993 320.659 508.557 331.49 505.309 339.066L510.879 354.136L516.863 370.222L530.31 354.567L565.826 313.245L565.761 297.493L565.598 262.261Z" fill="#FFC5AE"/>
<path d="M580.384 319.66C580.384 319.66 573.734 310.972 565.769 313.245L530.285 354.567C545.193 341.575 567.125 362.305 567.125 362.305L580.384 319.66Z" fill="#FFD712"/>
<path d="M501.208 230.31C498.131 209.068 516.238 203.896 516.238 203.896C532.632 202.922 565.939 233.363 565.939 233.363C565.939 233.363 574.871 224.431 582.106 235.433C589.341 246.435 578.663 268.099 565.598 262.228L565.728 297.46L575.034 297.249H576.771L588.642 296.997L590.266 296.949L601.293 296.713L603.453 296.665L622.486 296.25C618.288 291.208 609.315 284.03 608.276 277.169C606.896 268.132 611.922 260.117 609.729 251.681C608.357 246.492 604.59 242.66 602.235 238.04C599.799 233.241 598.987 227.727 598.841 222.612C598.654 215.881 599.003 208.094 594.432 203.685C591.127 200.477 586.434 200.502 582.975 197.546C578.915 194.063 578.046 187.9 575.513 183.142C572.013 176.557 564.632 172.586 558.25 173.771C555.814 174.234 553.557 175.395 551.088 175.842C546.46 176.751 541.539 175.314 536.911 173.552C532.283 171.79 527.711 169.639 522.848 169.013C517.984 168.388 512.503 169.59 509.255 173.601C506.007 177.612 505.439 183.605 501.541 187.104C499.69 188.728 497.335 189.605 495.208 190.864C492.553 192.53 490.274 194.73 488.516 197.325C486.757 199.919 485.558 202.851 484.993 205.934C483.905 211.658 484.928 217.838 482.712 223.53C481.088 227.792 477.84 231.219 475.444 235.271C472.759 239.92 471.282 245.168 471.149 250.536C470.987 256.869 472.773 263.057 471.75 269.674C470.272 279.637 459.327 296.169 447.261 302.324V302.389L469.907 301.821L471.782 301.772L489.41 301.325L491.034 301.277L500.055 301.09H506.421H508.11H514.427C514.59 299.896 514.695 299.003 514.777 298.459C507.761 297.062 503.214 294.326 500.364 290.664C489.305 276.471 503.831 248.547 501.208 230.31Z" fill="#601200"/>
<path d="M543.358 240.524C543.358 236.96 541.97 234.077 540.273 234.077C538.576 234.077 537.195 236.96 537.195 240.524C537.195 244.089 538.584 246.971 540.273 246.971C541.962 246.971 543.358 244.089 543.358 240.524ZM512.665 254.547C518.658 249.375 520.712 236.261 520.785 235.701C520.785 235.701 514.289 248.181 510.173 251.73C506.925 254.515 507.988 257.105 508.549 258.079C509.677 259.874 512.048 261.019 514.671 261.53C520.103 261.717 520.883 257.552 520.883 257.552C517.554 258.794 512.657 257.552 511.764 256.147C511.48 255.692 512.235 254.953 512.665 254.547ZM508.605 234.67C507.063 234.67 505.82 237.293 505.82 240.524C505.82 243.756 507.063 246.379 508.605 246.379C510.148 246.379 511.407 243.756 511.407 240.524C511.407 237.293 510.116 234.67 508.573 234.67H508.605ZM512.268 225.738C506.364 215.369 503.165 227.427 503.165 227.427C505.423 223.245 511.788 225.616 512.235 225.771L512.268 225.738ZM550.934 228.239C539.014 208.443 533.647 224.739 533.46 225.389C540.589 217.245 550.455 227.801 550.901 228.272L550.934 228.239ZM569.212 255.895C569.383 255.612 569.473 255.288 569.473 254.957C569.473 254.627 569.383 254.302 569.212 254.019C568.1 252.208 567.508 250.126 567.499 248.001C567.49 245.876 568.066 243.79 569.163 241.97C570.3 240.126 571.477 239.152 572.727 239.282C575.163 239.396 577.072 242.944 577.088 243.009C577.136 243.134 577.217 243.244 577.321 243.329C577.425 243.413 577.55 243.468 577.683 243.488C577.815 243.509 577.951 243.494 578.076 243.446C578.201 243.397 578.311 243.317 578.395 243.212C578.63 242.914 578.754 242.544 578.744 242.165C578.746 241.881 578.676 241.602 578.541 241.353C578.46 241.158 576.105 236.773 572.792 236.611C570.949 236.529 569.293 237.739 567.783 240.224C566.347 242.593 565.597 245.314 565.618 248.084C565.638 250.854 566.426 253.563 567.896 255.911C567.964 256.026 568.058 256.122 568.171 256.191C568.285 256.261 568.413 256.301 568.546 256.309C568.674 256.3 568.798 256.261 568.908 256.195C569.019 256.128 569.111 256.037 569.179 255.928L569.212 255.895ZM516.271 203.863C532.664 202.889 565.972 233.33 565.972 233.33C565.972 233.33 574.904 224.398 582.138 235.401C589.373 246.403 578.696 268.067 565.631 262.196C564.283 267.782 552.444 303.169 518.406 298.938C517.131 298.776 515.97 298.589 514.793 298.345C507.777 296.949 503.23 294.212 500.38 290.55C489.337 276.406 503.864 248.482 501.241 230.245C498.131 209.068 516.238 203.896 516.238 203.896L516.271 203.863Z" fill="#FFC5AE"/>
<path d="M569.179 255.927C569.35 255.645 569.441 255.32 569.441 254.99C569.441 254.659 569.35 254.335 569.179 254.052C568.067 252.241 567.475 250.159 567.466 248.034C567.458 245.909 568.033 243.822 569.13 242.002C570.267 240.159 571.444 239.184 572.695 239.314C575.131 239.428 577.039 242.976 577.055 243.041C577.104 243.167 577.184 243.277 577.288 243.361C577.393 243.445 577.518 243.5 577.65 243.521C577.783 243.541 577.918 243.527 578.043 243.478C578.168 243.43 578.279 243.349 578.363 243.244C578.598 242.947 578.721 242.576 578.712 242.197C578.713 241.914 578.643 241.634 578.509 241.385C578.427 241.19 576.073 236.805 572.76 236.643C570.917 236.562 569.26 237.772 567.75 240.256C566.314 242.625 565.565 245.346 565.585 248.116C565.605 250.886 566.394 253.596 567.864 255.944C567.931 256.058 568.026 256.154 568.139 256.224C568.252 256.293 568.381 256.333 568.513 256.342C568.65 256.334 568.783 256.293 568.899 256.22C569.016 256.148 569.112 256.047 569.179 255.927Z" fill="#FCA27E"/>
<path d="M574.246 535.297C576.107 539.014 578.347 542.53 580.929 545.788C582.256 540.744 583.292 535.628 584.03 530.466L573.523 526.122L569.61 524.498C570.89 528.2 572.44 531.804 574.246 535.281V535.297Z" fill="#6E0089"/>
<path d="M580.384 319.66L567.149 362.305C567.149 362.305 545.226 341.567 530.31 354.567L516.863 370.222L510.912 354.137C508.703 352.391 498.529 345.611 487.997 358.513L492.471 330.094C492.539 329.6 492.662 329.115 492.837 328.649C492.147 328.884 490.831 329.331 488.956 330.029C487.38 335.648 479.212 366.121 473.041 416.31L480.998 415.944C483.807 415.817 486.597 416.466 489.061 417.821C491.525 419.176 493.568 421.185 494.964 423.626C494.961 423.642 494.961 423.658 494.964 423.674L502.223 436.536C521.557 442.058 544.073 467.578 544.073 467.578L570.868 469.324C569.09 371.18 583.502 321.308 583.502 321.308L583.689 320.642C581.578 319.993 580.384 319.66 580.384 319.66Z" fill="white"/>
<path d="M580.336 592.728C580.877 597.086 581.475 601.506 582.13 605.988L582.179 606.256L588.309 634.082L590.282 643.014C592.05 651.031 595.999 658.402 601.693 664.315C607.388 670.227 614.606 674.45 622.55 676.517L670.912 688.891L704.528 697.506C705.097 697.653 705.695 697.651 706.264 697.503C706.833 697.354 707.354 697.063 707.779 696.656C708.204 696.25 708.519 695.742 708.693 695.18C708.867 694.619 708.895 694.022 708.775 693.446L691.025 605.696L682.028 557.927C681.887 557.194 681.514 556.526 680.965 556.022C680.415 555.517 679.717 555.203 678.975 555.126C635.623 550.619 600.595 547.493 587.01 546.316C586.115 546.236 585.225 546.51 584.529 547.079C583.834 547.649 583.39 548.467 583.291 549.361C581.724 563.44 580.652 578.04 580.384 592.728H580.336Z" fill="#9316B2"/>
<path d="M580.385 592.728C580.669 576.879 581.895 561.126 583.681 546.023L580.929 545.788C578.347 542.53 576.107 539.014 574.246 535.297C575.708 553.312 577.737 572.456 580.336 592.728H580.385Z" fill="#A82DC6"/>
<path d="M583.535 321.308C583.535 321.308 569.122 371.18 570.9 469.324L576.471 469.697L597.282 471.061C602.917 447.668 607.789 432.898 607.789 432.898L577.12 423.617L611.735 410.106L600.083 325.92C592.856 323.484 587.091 321.698 583.722 320.667L583.535 321.308Z" fill="#A82DC6"/>
<path d="M678.691 535.192C644.904 537.132 611.889 527.738 585.443 516.573C585.175 521.648 584.631 526.357 584.03 530.466C583.292 535.629 582.256 540.744 580.928 545.788L583.681 546.023C594.066 546.917 632.781 550.303 681.557 555.394L686.429 555.905C735.878 561.11 753.393 484.207 722.27 416.293C726.427 431.997 749.739 531.115 678.691 535.192Z" fill="#9316B2"/>
<path d="M641.868 370.766C617.987 386.534 613.594 399.745 626.351 443.324L636.663 473.635L597.282 471.061L576.471 469.697C584.842 483.858 586.271 501.705 585.403 516.573C611.889 527.738 644.904 537.165 678.691 535.191C749.739 531.132 726.427 431.997 722.27 416.293C715.643 401.797 707.014 388.303 696.636 376.206C694.899 374.213 693.036 372.333 691.057 370.579C670.717 359.504 654.405 362.492 641.868 370.766Z" fill="#A82DC6"/>
<path d="M597.282 471.061L636.663 473.635L626.351 443.324C613.594 399.745 617.987 386.534 641.867 370.766C654.404 362.492 670.717 359.504 691.057 370.579C669.353 351.165 625.587 334.487 600.115 325.92L611.735 410.082L577.12 423.593L607.789 432.874C607.789 432.874 602.917 447.668 597.282 471.061Z" fill="#9316B2"/>
<path d="M520.866 275.123C525.137 275.123 531.235 273.775 536.7 267.604C536.791 267.442 536.825 267.254 536.794 267.071C536.764 266.888 536.672 266.721 536.533 266.598C536.395 266.474 536.218 266.402 536.033 266.393C535.847 266.384 535.664 266.439 535.514 266.548C526.583 276.584 516.352 272.987 515.921 272.833C515.738 272.808 515.552 272.846 515.394 272.94C515.235 273.035 515.114 273.181 515.05 273.354C514.985 273.528 514.982 273.718 515.04 273.893C515.098 274.068 515.214 274.218 515.369 274.319C517.147 274.878 519.003 275.15 520.866 275.123Z" fill="#FCA27E"/>
<g opacity="0.4">
<path d="M528.824 241.515C528.824 249.724 533.89 256.382 540.126 256.382C546.362 256.382 551.429 249.724 551.429 241.515C551.429 233.306 546.371 226.639 540.126 226.639C533.882 226.639 528.824 233.298 528.824 241.515Z" fill="#F2F7F9" stroke="#E6EBED" stroke-miterlimit="10"/>
<path d="M528.824 241.515C528.824 249.724 533.89 256.382 540.126 256.382C546.362 256.382 551.429 249.724 551.429 241.515C551.429 233.306 546.371 226.639 540.126 226.639C533.882 226.639 528.824 233.298 528.824 241.515Z" fill="#F2F7F9" stroke="#E6EBED" stroke-miterlimit="10"/>
<path d="M493.559 241.515C493.559 249.724 498.618 256.382 504.862 256.382C511.106 256.382 516.157 249.724 516.157 241.515C516.157 233.306 511.098 226.639 504.862 226.639C498.626 226.639 493.559 233.298 493.559 241.515Z" fill="#F2F7F9" stroke="#E6EBED" stroke-miterlimit="10"/>
</g>
<path d="M504.854 225.844C509.288 225.844 513.169 228.97 515.272 233.598C517.083 230.293 519.137 228.596 521.419 228.572C524.869 228.572 527.72 232.477 529.157 234.873C531.089 229.546 535.263 225.844 540.094 225.844C545.299 225.844 549.732 230.131 551.462 236.115L565.753 232.599C565.861 232.547 565.981 232.519 566.101 232.519C566.222 232.518 566.342 232.544 566.451 232.596C566.56 232.647 566.657 232.722 566.733 232.816C566.81 232.909 566.865 233.018 566.894 233.136C566.923 233.253 566.925 233.375 566.901 233.493C566.877 233.612 566.826 233.723 566.754 233.82C566.681 233.916 566.588 233.995 566.48 234.051C566.373 234.107 566.255 234.138 566.134 234.142L551.827 237.658C552.082 238.928 552.213 240.22 552.217 241.515C552.217 250.154 546.785 257.178 540.118 257.178C533.452 257.178 528.02 250.154 528.02 241.515C528.02 239.992 528.195 238.475 528.54 236.992C527.419 234.784 524.48 230.163 521.443 230.163C519.543 230.163 517.74 232.023 516.059 235.596C516.66 237.511 516.964 239.507 516.961 241.515C516.961 250.154 511.537 257.178 504.87 257.178C498.204 257.178 492.772 250.154 492.772 241.515C492.772 232.875 498.18 225.844 504.854 225.844ZM540.127 255.586C545.916 255.586 550.634 249.277 550.634 241.515C550.634 233.752 545.916 227.435 540.127 227.435C535.547 227.435 531.658 231.389 530.22 236.878C530.245 236.998 530.242 237.121 530.213 237.239C530.183 237.357 530.128 237.467 530.05 237.56C529.764 238.859 529.62 240.185 529.62 241.515C529.62 249.277 534.337 255.586 540.127 255.586ZM504.854 255.586C510.644 255.586 515.353 249.277 515.353 241.515C515.356 239.758 515.105 238.011 514.606 236.326C514.492 236.228 514.407 236.101 514.361 235.957C514.315 235.814 514.31 235.66 514.346 235.514C512.657 230.74 509.044 227.395 504.854 227.395C499.057 227.395 494.347 233.712 494.347 241.474C494.347 249.237 499.057 255.586 504.854 255.586Z" fill="#FF684A"/>
<path d="M592.288 241.604C593.1 243.61 594.034 245.583 594.976 247.491C596.746 251.088 598.41 254.498 599.1 258.25C599.912 262.74 599.238 267.401 598.426 272.175L598.288 272.939C597.525 277.38 596.729 281.992 597.217 286.572C597.527 290.281 598.961 293.807 601.325 296.681L603.485 296.632C600.755 293.894 599.09 290.272 598.792 286.417C598.329 282.041 599.117 277.551 599.864 273.207L599.985 272.443C600.797 267.571 601.528 262.699 600.659 257.966C599.937 253.987 598.142 250.325 596.405 246.793C595.487 244.917 594.529 242.977 593.766 241.02C591.414 235.04 590.577 228.571 591.33 222.19C591.309 222.007 591.226 221.836 591.096 221.706C590.965 221.576 590.794 221.494 590.61 221.474C590.427 221.454 590.242 221.498 590.087 221.597C589.931 221.696 589.814 221.845 589.755 222.019C588.97 228.657 589.84 235.385 592.288 241.604Z" fill="#4C1100"/>
<path d="M585.89 282.203C585.89 287.319 587.197 292.215 588.642 296.989L590.266 296.941C588.805 292.166 587.432 287.197 587.449 282.203C587.561 279.054 587.939 275.919 588.577 272.833C588.821 271.558 589.04 270.291 589.227 269.017C589.82 265.087 590.266 259.996 588.415 255.335C588.331 255.139 588.173 254.984 587.975 254.903C587.778 254.823 587.556 254.823 587.359 254.904C587.169 254.989 587.019 255.142 586.938 255.334C586.858 255.526 586.855 255.741 586.929 255.936C588.667 260.231 588.236 265.054 587.676 268.773C587.489 270.032 587.27 271.29 587.043 272.549C586.384 275.728 585.998 278.958 585.89 282.203Z" fill="#4C1100"/>
<path d="M575.033 297.282H576.771C574.572 292.868 573.69 287.916 574.23 283.015C574.416 281.391 574.765 279.662 575.098 278.021C575.756 274.903 576.438 271.672 576.024 268.408C575.992 268.201 575.881 268.014 575.714 267.887C575.548 267.76 575.339 267.702 575.131 267.726C574.924 267.758 574.737 267.869 574.61 268.035C574.483 268.202 574.425 268.411 574.449 268.619C574.814 271.607 574.213 274.571 573.556 277.705C573.206 279.377 572.841 281.107 572.654 282.845C572.108 287.784 572.931 292.778 575.033 297.282Z" fill="#4C1100"/>
<path d="M469.907 301.853L471.782 301.804C477.901 292.985 481.4 282.615 481.875 271.891C481.965 268.781 481.794 265.647 481.615 262.643C481.437 259.638 481.282 256.788 481.364 253.841C481.567 246.76 483.353 241.068 486.706 236.927C486.778 236.85 486.832 236.76 486.867 236.661C486.901 236.562 486.915 236.458 486.907 236.353C486.9 236.249 486.871 236.147 486.822 236.055C486.774 235.962 486.707 235.88 486.625 235.815C486.45 235.692 486.232 235.643 486.021 235.679C485.809 235.716 485.621 235.835 485.497 236.01C481.9 240.459 479.975 246.492 479.772 253.971C479.691 256.975 479.853 259.987 480.024 262.902C480.194 265.817 480.373 268.968 480.267 272.005C479.749 282.742 476.152 293.104 469.907 301.853Z" fill="#4C1100"/>
<path d="M488.282 279.126C488.525 280.401 488.826 281.659 489.094 282.869C489.362 284.079 489.719 285.354 489.906 286.604C490.802 291.504 490.611 296.54 489.345 301.358L490.969 301.309C492.225 296.371 492.405 291.22 491.497 286.206C491.262 284.923 490.937 283.632 490.636 282.39C490.336 281.148 490.036 279.954 489.824 278.728C488.535 271.407 489.557 263.867 492.748 257.154C492.793 257.063 492.819 256.964 492.824 256.863C492.83 256.762 492.814 256.661 492.778 256.566C492.742 256.472 492.687 256.386 492.616 256.313C492.545 256.241 492.46 256.184 492.366 256.147C492.165 256.076 491.945 256.083 491.748 256.165C491.552 256.248 491.393 256.4 491.302 256.593C487.983 263.609 486.928 271.483 488.282 279.126Z" fill="#4C1100"/>
<path d="M506.405 301.073H508.094C508.224 300.692 508.346 300.262 508.492 299.766C508.751 298.822 509.06 297.893 509.417 296.981L507.948 296.364C507.562 297.329 507.234 298.316 506.965 299.32C506.803 299.864 506.616 300.546 506.405 301.073Z" fill="#4C1100"/>
<path d="M581.031 545.027L681.659 554.61L681.508 556.194L580.88 546.611L581.031 545.027Z" fill="#6E0089"/>
<path d="M412.658 574.96L412.715 576.551L393.703 577.235L393.646 575.644L412.658 574.96Z" fill="#6E0089"/>
<path d="M509.251 529.949L509.809 531.44L482.794 541.562L482.235 540.072L509.251 529.949Z" fill="#FCA27E"/>
<path d="M251.695 646.278V629.422H265.499C266.761 621.927 269.703 614.814 274.106 608.619L264.362 598.875L276.274 586.955L286.018 596.699C292.205 592.292 299.313 589.349 306.804 588.092V574.288H323.677V588.092C331.172 589.351 338.283 592.297 344.472 596.707L354.216 586.963L366.144 598.875L356.4 608.619C360.809 614.809 363.755 621.919 365.015 629.414H378.819V646.27H365.015C363.756 653.772 360.807 660.888 356.392 667.081L366.135 676.825L354.216 688.737L344.472 678.993C338.282 683.403 331.172 686.351 323.677 687.616V701.42H306.804V687.616C299.31 686.351 292.2 683.403 286.009 678.993L276.266 688.737L264.354 676.825L274.098 667.081C269.688 660.891 266.739 653.781 265.474 646.287L251.695 646.278ZM315.249 666.87C320.988 666.87 326.599 665.168 331.371 661.979C336.144 658.791 339.863 654.258 342.06 648.956C344.256 643.653 344.831 637.818 343.711 632.189C342.592 626.559 339.828 621.388 335.769 617.33C331.711 613.271 326.54 610.507 320.91 609.388C315.281 608.268 309.446 608.842 304.143 611.039C298.84 613.235 294.308 616.955 291.119 621.727C287.931 626.5 286.229 632.11 286.229 637.85C286.229 641.661 286.979 645.435 288.438 648.956C289.896 652.477 292.034 655.676 294.728 658.37C297.423 661.065 300.622 663.203 304.143 664.661C307.664 666.12 311.438 666.87 315.249 666.87Z" fill="#CFD6D9"/>
<path d="M175.02 592.079V584.365H181.329C181.909 580.935 183.258 577.682 185.275 574.848L180.809 570.391L186.266 564.934L190.732 569.4C193.562 567.377 196.817 566.027 200.248 565.454V559.145H207.962V565.454C211.395 566.029 214.653 567.378 217.486 569.4L221.944 564.934L227.401 570.391L222.935 574.848C224.956 577.68 226.305 580.934 226.881 584.365H233.19V592.079H226.881C226.308 595.51 224.958 598.765 222.935 601.595L227.401 606.061L221.944 611.517L217.486 607.052C214.653 609.069 211.4 610.418 207.97 610.998V617.307H200.256V610.998C196.809 610.428 193.537 609.079 190.691 607.052L186.225 611.517L180.769 606.061L185.235 601.595C183.215 598.763 181.865 595.509 181.288 592.079H175.02ZM204.105 601.506C206.732 601.506 209.301 600.727 211.485 599.267C213.67 597.807 215.372 595.733 216.378 593.305C217.383 590.878 217.646 588.207 217.134 585.63C216.621 583.053 215.356 580.686 213.498 578.829C211.64 576.971 209.273 575.706 206.697 575.193C204.12 574.68 201.449 574.944 199.021 575.949C196.594 576.954 194.52 578.657 193.06 580.842C191.6 583.026 190.821 585.594 190.821 588.222C190.82 589.967 191.163 591.694 191.83 593.307C192.497 594.919 193.476 596.384 194.709 597.617C195.943 598.851 197.408 599.83 199.02 600.497C200.632 601.164 202.36 601.507 204.105 601.506Z" fill="#CFD6D9"/>
<path d="M326.292 735.986V729.709H331.415C331.897 726.917 333.008 724.271 334.663 721.971L331.034 718.342L335.467 713.908L339.097 717.538C341.4 715.897 344.046 714.8 346.835 714.33V709.199H353.087V714.33C355.876 714.8 358.522 715.897 360.825 717.538L364.455 713.908L368.896 718.342L365.267 721.971C366.923 724.271 368.033 726.917 368.515 729.709H373.646V735.986H368.515C368.033 738.778 366.923 741.425 365.267 743.724L368.896 747.354L364.455 751.787L360.825 748.157C358.522 749.799 355.876 750.895 353.087 751.365V756.497H346.819V751.365C344.03 750.895 341.384 749.799 339.081 748.157L335.451 751.787L331.018 747.354L334.647 743.724C332.991 741.425 331.881 738.778 331.399 735.986H326.292ZM349.937 743.643C352.073 743.643 354.161 743.01 355.936 741.823C357.712 740.636 359.097 738.95 359.914 736.976C360.731 735.003 360.945 732.832 360.528 730.737C360.112 728.642 359.083 726.718 357.573 725.207C356.063 723.697 354.138 722.668 352.044 722.252C349.949 721.835 347.777 722.049 345.804 722.866C343.831 723.684 342.144 725.068 340.957 726.844C339.771 728.62 339.137 730.708 339.137 732.844C339.136 734.265 339.416 735.672 339.96 736.985C340.505 738.298 341.303 739.49 342.31 740.494C343.316 741.497 344.511 742.292 345.825 742.832C347.14 743.373 348.548 743.648 349.969 743.643H349.937Z" fill="#CFD6D9"/>
<path d="M242.333 553.786V547.517H247.465C247.946 544.725 249.057 542.079 250.713 539.779L247.083 536.15L251.517 531.716L255.146 535.346C257.444 533.687 260.091 532.576 262.884 532.098V526.974H269.161V532.098C271.954 532.577 274.601 533.688 276.899 535.346L280.529 531.716L284.881 536.15L281.251 539.779C282.893 542.082 283.989 544.728 284.459 547.517H289.59V553.786H284.459C283.989 556.575 282.893 559.221 281.251 561.524L284.881 565.153L280.447 569.595L276.818 565.965C274.515 567.607 271.869 568.703 269.08 569.173V574.304H262.803V569.173C260.014 568.703 257.368 567.607 255.065 565.965L251.435 569.595L247.002 565.153L250.672 561.524C249.017 559.224 247.906 556.578 247.424 553.786H242.333ZM265.978 561.451C268.114 561.451 270.202 560.817 271.978 559.631C273.754 558.444 275.138 556.758 275.955 554.784C276.773 552.811 276.987 550.64 276.57 548.545C276.153 546.45 275.125 544.526 273.614 543.015C272.104 541.505 270.18 540.476 268.085 540.06C265.99 539.643 263.819 539.857 261.845 540.674C259.872 541.492 258.185 542.876 256.999 544.652C255.812 546.428 255.179 548.516 255.179 550.652C255.178 552.07 255.456 553.475 255.999 554.786C256.541 556.096 257.336 557.287 258.339 558.29C259.342 559.293 260.533 560.089 261.844 560.631C263.155 561.173 264.559 561.452 265.978 561.451Z" fill="#CFD6D9"/>
</g>
<defs>
<clipPath id="clip0_117_2">
<rect width="748" height="783" fill="white"/>
</clipPath>
</defs>
</svg>
